# xmcd CD database file
#
# Track frame offsets:
#	150
#	16130
#	30967
#	46930
#
# Disc length: 821 seconds
#
# Revision: 1
# Processed by: cddbd v1.5.1PL0 Copyright (c) Steve Scherf et al.
# Submitted via: CDex 1.51
#
DISCID=1e033304
DTITLE=ファイン☆レイン - おしゃれファンタジー
DYEAR=2005
DGENRE=Anime
TTITLE0=おしゃれファンタジー
TTITLE1=パラダイス・プリンセス
TTITLE2=おしゃれファンタジー (オリジナルカラオケ)
TTITLE3=パラダイス・プリンセス (オリジナルカラオケ)
EXTD=YEAR: 2005
EXTT0=
EXTT1=
EXTT2=
EXTT3=
PLAYORDER=
